<svg width="48" height="49" viewBox="0 0 48 49" fill="none" xmlns="http://www.w3.org/2000/svg">
<path fill-rule="evenodd" clip-rule="evenodd" d="M18.9792 6.61682H10.3874C9.93605 6.61682 9.50933 6.81059 9.22669 7.14425L2.32531 15.8605C2.09283 16.1351 1.98659 17.069 2.00146 17.399H16.3274L18.9792 6.61682Z" fill="#13E5BF" fill-opacity="0.2"/>
<path fill-rule="evenodd" clip-rule="evenodd" d="M28.1499 6.61682H36.7417C37.1931 6.61682 37.6198 6.81059 37.9025 7.14425L44.8038 15.8605C45.0363 16.1351 45.1426 17.069 45.1277 17.399H30.8017L28.1499 6.61682Z" fill="#13E5BF" fill-opacity="0.2"/>
<path fill-rule="evenodd" clip-rule="evenodd" d="M22.7244 40.9314C22.9544 41.1746 23.2535 41.3141 23.5646 41.3598L16.3764 16.8003H2.59912C2.61303 17.1148 2.73662 17.425 2.97152 17.6721L22.7244 40.9314Z" fill="#13E5BF" fill-opacity="0.2"/>
<path fill-rule="evenodd" clip-rule="evenodd" d="M24.4047 40.9314C24.1748 41.1746 23.8756 41.3141 23.5646 41.3598L30.7527 16.8003H44.53C44.5161 17.1148 44.3925 17.425 44.1576 17.6721L24.4047 40.9314Z" fill="#13E5BF" fill-opacity="0.2"/>
<path fill-rule="evenodd" clip-rule="evenodd" d="M44.7569 17.9985C45.2276 17.4393 45.3119 16.1931 44.8752 15.6024L37.2932 5.99497C37.0242 5.63116 36.6171 5.41919 36.1869 5.41919H10.9391C10.5093 5.41919 10.1021 5.63116 9.83315 5.99497L2.36954 15.6024C1.93243 16.1931 1.89836 17.4393 2.3695 17.9985L22.5162 42.058C23.0785 42.7246 24.0479 42.7246 24.6102 42.058L44.7569 17.9985ZM36.3299 6.70721L36.3411 6.72236L43.8218 16.2014H31.1305L28.5974 6.61721H36.1869C36.2145 6.61721 36.273 6.63023 36.3299 6.70721ZM27.3583 6.61721L29.8913 16.2014H17.235L19.768 6.61721H27.3583ZM18.5288 6.61721L15.9958 16.2014H3.42125L10.788 6.71868L10.7965 6.70721C10.8535 6.63007 10.9121 6.61721 10.9391 6.61721H18.5288ZM3.43048 17.3994L22.2865 39.9176L15.8345 17.3994H3.43048ZM24.8397 39.9178L43.6959 17.3994H31.2918L24.8397 39.9178ZM23.5631 40.0238L17.0807 17.3994H30.0455L23.5631 40.0238Z" fill="url(#paint0_linear_1_28712)"/>
<defs>
<linearGradient id="paint0_linear_1_28712" x1="51.3325" y1="23.9886" x2="2.02881" y2="23.9886" gradientUnits="userSpaceOnUse">
<stop stop-color="#13E5BF"/>
<stop offset="1" stop-color="#01C38D"/>
</linearGradient>
</defs>
</svg>
