<svg width="48" height="49" viewBox="0 0 48 49" fill="none" xmlns="http://www.w3.org/2000/svg">
<path d="M31.186 16.8178C34.1058 19.0132 36.0004 22.6047 36.0004 26.6681C36.0004 31.0878 33.931 34.486 30.5719 36.6044C29.0166 37.5947 26.7899 38.5856 24.7654 38.784C26.909 38.5503 28.7214 37.1934 29.5942 35.3139C29.8023 34.8781 29.9608 34.3433 29.9806 33.8184C29.9905 33.6798 30.0004 33.5411 30.0004 33.4024C30.0004 32.0456 29.3167 30.8473 28.2762 30.1342C26.6511 29.0943 25.571 27.272 25.571 25.1923C25.571 24.9249 25.5909 24.6674 25.6206 24.4198C23.5099 25.737 22.0037 27.9356 21.647 30.5106C20.9534 30.0055 20.5075 29.1835 20.5075 28.2624C20.5075 28.1139 20.5174 27.9653 20.5372 27.8267C19.0013 28.926 18.0004 30.7185 18.0004 32.7488C18.0004 34.9573 19.1895 36.8886 20.9534 37.9383C21.8688 38.4991 22.931 38.8156 24.0815 38.8197C24.0735 38.8198 24.0656 38.8198 24.0576 38.8198C19.4262 38.8198 15.7999 35.9407 13.9693 31.8003C13.594 30.9433 13.292 29.8649 13.2462 28.8154C13.2187 28.5458 13.2004 28.2665 13.2004 27.9873C13.2004 25.2719 14.5002 22.8743 16.4772 21.4493C19.58 19.3598 21.6303 15.7104 21.6303 11.5604C21.6303 11.0404 21.6028 10.5205 21.5388 10.0198C25.5569 12.6485 28.4126 17.0585 29.09 22.2003C30.3988 21.1797 31.2501 19.5427 31.2501 17.694C31.2501 17.3955 31.2318 17.1066 31.186 16.8178Z" fill="#13E5BF" fill-opacity="0.2"/>
<path fill-rule="evenodd" clip-rule="evenodd" d="M25.1764 3.48046C24.4458 3.0695 23.5538 3.0695 22.8232 3.48046L6.02318 12.9305C5.26747 13.3555 4.7998 14.1552 4.7998 15.0222V33.815C4.7998 34.682 5.26747 35.4817 6.02318 35.9068L22.8232 45.3568C23.5538 45.7677 24.4458 45.7677 25.1764 45.3568L41.9764 35.9068C42.7321 35.4817 43.1998 34.682 43.1998 33.815V15.0222C43.1998 14.1552 42.7321 13.3555 41.9764 12.9305L25.1764 3.48046ZM25.1991 7.11051C24.4569 6.68231 23.5427 6.68231 22.8005 7.11051L9.60047 14.7259C8.85753 15.1545 8.3998 15.947 8.3998 16.8047V32.0324C8.3998 32.8902 8.85753 33.6827 9.60047 34.1113L22.8005 41.7267C23.5427 42.1549 24.4569 42.1549 25.1991 41.7267L38.3991 34.1113C39.1421 33.6827 39.5998 32.8902 39.5998 32.0324V16.8047C39.5998 15.947 39.1421 15.1545 38.3991 14.7259L25.1991 7.11051Z" fill="#13E5BF" fill-opacity="0.2"/>
<path d="M16.7998 31.3198C16.7998 28.812 18.0008 26.5979 19.8439 25.24C21.1597 24.4363 23.9105 22.427 24.3865 20.8187C24.3509 21.1246 24.3271 21.4426 24.3271 21.7729C24.3271 22.7472 24.7375 23.7064 25.3535 24.5919C23.383 25.924 21.9879 28.0443 21.6464 30.5095C20.9527 30.0044 20.5068 29.1824 20.5068 28.2614C20.5068 28.1128 20.5167 27.9643 20.5366 27.8256C19.0006 28.9249 17.9998 30.7175 17.9998 32.7477C17.9998 34.9563 19.1889 36.8875 20.9527 37.9373C21.805 38.4594 22.7844 38.7697 23.844 38.8134C22.5606 38.7644 21.3744 38.3801 20.3433 37.73C18.2267 36.4333 16.7998 34.0478 16.7998 31.3198Z" fill="#13E5BF" fill-opacity="0.2"/>
<path d="M24.1138 38.8187C24.1174 38.8187 24.121 38.8187 24.1247 38.8187C27.038 38.8187 29.5588 37.0449 30.7123 34.4882C30.962 33.9499 31.1522 33.2894 31.176 32.641C31.1879 32.4698 31.1998 32.2984 31.1998 32.1272C31.1998 30.4513 30.3793 28.9711 29.1308 28.0903C28.0069 27.35 26.5828 26.2179 25.578 24.8998C25.5731 24.9956 25.5704 25.0927 25.5704 25.1912C25.5704 27.271 26.6505 29.0933 28.2756 30.1332C29.3161 30.8462 29.9998 32.0446 29.9998 33.4014C29.9998 33.54 29.9899 33.6787 29.98 33.8173C29.9602 34.3422 29.8016 34.877 29.5935 35.3128C28.6336 37.3799 26.5373 38.8148 24.1138 38.8187Z" fill="#13E5BF" fill-opacity="0.2"/>
<path fill-rule="evenodd" clip-rule="evenodd" d="M28.8476 20.7981C27.9936 16.8086 25.8113 13.3469 22.8175 10.9468C22.4059 10.6169 21.979 10.307 21.5381 10.0186C21.6016 10.5149 21.6292 11.03 21.6297 11.5454L21.6297 11.5592C21.6297 15.7093 19.5794 19.3586 16.4766 21.4481C14.4995 22.8732 13.1998 25.2707 13.1998 27.9861C13.1998 28.2653 13.2181 28.5446 13.2456 28.8142C13.2913 29.8637 13.5934 30.9422 13.9687 31.7991C15.7992 35.9396 19.4256 38.8186 24.0569 38.8186C24.0649 38.8186 24.0729 38.8186 24.0809 38.8186C24.0885 38.8186 24.0962 38.8186 24.1039 38.8186C24.3271 38.8186 24.5476 38.8064 24.7648 38.7828C26.7893 38.5844 29.016 37.5935 30.5712 36.6032C33.9304 34.4849 35.9998 31.0866 35.9998 26.6669C35.9998 23.2229 34.6387 20.1179 32.446 17.9146C32.3714 17.8396 32.2958 17.7657 32.2193 17.6928C31.8914 17.3806 31.5462 17.0879 31.1854 16.8166C31.2311 17.1055 31.2494 17.3943 31.2494 17.6928C31.2494 17.9294 31.2355 18.1625 31.2084 18.3913C31.0876 19.413 30.7053 20.3486 30.1349 21.1226C29.8349 21.5298 29.4828 21.8923 29.0893 22.1991C29.027 21.7256 28.9461 21.2584 28.8476 20.7981ZM29.2054 36.0201C29.4571 35.8801 29.6986 35.7363 29.9267 35.591L29.9311 35.5882C32.9545 33.6816 34.7998 30.6598 34.7998 26.6669C34.7998 23.8916 33.8264 21.3715 32.228 19.4553C31.8452 20.9464 30.9876 22.2406 29.8272 23.1454L28.1735 24.435L27.8996 22.3559C27.3823 18.4289 25.5043 14.9692 22.797 12.5068C22.5094 16.656 20.3482 20.2799 17.1638 22.432C15.5074 23.6331 14.3998 25.6636 14.3998 27.9861C14.3998 28.2142 14.4148 28.4514 14.4394 28.6926L14.4429 28.7272L14.4444 28.7619C14.4824 29.6335 14.7386 30.5651 15.067 31.3158C15.9753 33.3692 17.3435 35.0471 19.0532 36.1539C18.3893 35.1848 17.9998 34.0116 17.9998 32.7476C17.9998 31.2973 18.5105 29.9683 19.3621 28.9267C19.5562 28.6893 19.768 28.4668 19.9955 28.2612C20.1672 28.1061 20.3478 27.9605 20.5366 27.8255C20.5167 27.9641 20.5068 28.1127 20.5068 28.2612C20.5068 28.6014 20.5677 28.9281 20.6793 29.2303L20.6887 29.2553C20.881 29.7606 21.216 30.196 21.6464 30.5094C21.7124 30.0331 21.8177 29.5696 21.9589 29.1223C22.4203 27.6603 23.265 26.37 24.3725 25.3629C24.4365 25.3047 24.5014 25.2474 24.5672 25.1911C24.8975 24.9082 25.2494 24.6498 25.62 24.4186C25.5902 24.6662 25.5704 24.9237 25.5704 25.1911C25.5704 25.4266 25.5843 25.6589 25.6112 25.8871C25.8221 27.6736 26.8346 29.2109 28.2756 30.133C29.3161 30.8461 29.9998 32.0445 29.9998 33.4013C29.9998 33.5399 29.9899 33.6785 29.98 33.8172C29.9602 34.3421 29.8016 34.8769 29.5935 35.3127C29.4797 35.5578 29.3499 35.7941 29.2054 36.0201ZM24.6257 37.5907C26.3456 37.406 27.8033 36.3186 28.5052 34.8073L28.5106 34.7955C28.6634 34.4755 28.7684 34.1013 28.7808 33.7719L28.7816 33.7518L28.783 33.7317C28.7935 33.5858 28.7998 33.4899 28.7998 33.4013C28.7998 32.463 28.3313 31.6323 27.6107 31.1322C26.1168 30.1698 25.0063 28.6549 24.5714 26.872C23.6562 27.9229 23.0349 29.2314 22.835 30.674L22.56 32.6591L20.94 31.4794C20.5058 31.1633 20.1395 30.7607 19.8646 30.298C19.4415 31.0172 19.1998 31.8539 19.1998 32.7476C19.1998 34.5151 20.1504 36.0632 21.5665 36.906L21.5796 36.9138C22.3091 37.3606 23.1547 37.6144 24.0809 37.6185C24.2586 37.6178 24.4405 37.6082 24.6257 37.5907Z" fill="url(#paint0_linear_1_28728)"/>
<path fill-rule="evenodd" clip-rule="evenodd" d="M25.1764 3.48046C24.4458 3.0695 23.5538 3.0695 22.8232 3.48046L6.02318 12.9305C5.26747 13.3555 4.7998 14.1552 4.7998 15.0222V33.815C4.7998 34.682 5.26747 35.4817 6.02318 35.9068L22.8232 45.3568C23.5538 45.7677 24.4458 45.7677 25.1764 45.3568L41.9764 35.9068C42.7321 35.4817 43.1998 34.682 43.1998 33.815V15.0222C43.1998 14.1552 42.7321 13.3555 41.9764 12.9305L25.1764 3.48046ZM41.3881 13.9763L24.5881 4.52635C24.2228 4.32087 23.7768 4.32087 23.4115 4.52635L6.61149 13.9764C6.23364 14.1889 5.9998 14.5887 5.9998 15.0222V33.815C5.9998 34.2485 6.23364 34.6483 6.61149 34.8609L23.4115 44.3109C23.7768 44.5163 24.2228 44.5163 24.5881 44.3109L41.3881 34.8609C41.766 34.6483 41.9998 34.2485 41.9998 33.815V15.0222C41.9998 14.5887 41.766 14.1889 41.3881 13.9763Z" fill="url(#paint1_linear_1_28728)"/>
<defs>
<linearGradient id="paint0_linear_1_28728" x1="4.7998" y1="3.17224" x2="4.7998" y2="45.665" gradientUnits="userSpaceOnUse">
<stop stop-color="#13E5BF"/>
<stop offset="1" stop-color="#01C38D"/>
</linearGradient>
<linearGradient id="paint1_linear_1_28728" x1="4.7998" y1="3.17224" x2="4.7998" y2="45.665" gradientUnits="userSpaceOnUse">
<stop stop-color="#13E5BF"/>
<stop offset="1" stop-color="#01C38D"/>
</linearGradient>
</defs>
</svg>
