<svg width="48" height="49" viewBox="0 0 48 49" fill="none" xmlns="http://www.w3.org/2000/svg">
<path fill-rule="evenodd" clip-rule="evenodd" d="M25.5763 3.70556C24.5976 3.15503 23.4025 3.15503 22.4238 3.70556L6.43891 12.6971C5.42655 13.2665 4.80005 14.3377 4.80005 15.4993V33.3386C4.80005 34.5001 5.42655 35.5713 6.43891 36.1408L22.4238 45.1323C23.4025 45.6828 24.5976 45.6828 25.5763 45.1323L41.5612 36.1408C42.5736 35.5713 43.2001 34.5001 43.2001 33.3386V15.4993C43.2001 14.3377 42.5735 13.2665 41.5612 12.6971L25.5763 3.70556ZM25.6202 8.56388C24.6192 7.97993 23.3813 7.97993 22.3803 8.56388L11.1954 15.0884C10.2076 15.6646 9.60025 16.722 9.60025 17.8655V30.9722C9.60025 32.1157 10.2076 33.1732 11.1954 33.7494L22.3803 40.2739C23.3813 40.8578 24.6192 40.8578 25.6202 40.2739L36.8052 33.7494C37.7929 33.1732 38.4003 32.1157 38.4003 30.9722V17.8655C38.4003 16.722 37.7929 15.6646 36.8052 15.0884L25.6202 8.56388Z" fill="#13E5BF" fill-opacity="0.2"/>
<path fill-rule="evenodd" clip-rule="evenodd" d="M24.5886 4.52745L41.3886 13.9774C41.7665 14.19 42.0003 14.5898 42.0003 15.0233V33.8161C42.0003 34.2496 41.7665 34.6494 41.3886 34.862L24.5886 44.312C24.2233 44.5174 23.7773 44.5174 23.412 44.312L6.61198 34.862C6.23413 34.6494 6.00029 34.2496 6.00029 33.8161V15.0233C6.00029 14.5898 6.23413 14.19 6.61198 13.9775L23.412 4.52745C23.7773 4.32197 24.2233 4.32197 24.5886 4.52745ZM22.8237 3.48156C23.5543 3.0706 24.4463 3.0706 25.1769 3.48156L41.9769 12.9316C42.7326 13.3566 43.2003 14.1563 43.2003 15.0233V33.8161C43.2003 34.6831 42.7326 35.4828 41.9769 35.9079L25.1769 45.3579C24.4463 45.7688 23.5543 45.7688 22.8237 45.3579L6.02367 35.9079C5.26796 35.4828 4.80029 34.6831 4.80029 33.8161V15.0233C4.80029 14.1563 5.26796 13.3566 6.02367 12.9316L22.8237 3.48156ZM24.8932 13.5362L26.8616 12.419L33.1241 15.9743V19.2248L36.0004 20.8576V27.9884L33.1241 29.6193V32.8636L26.8616 36.419L24.8932 35.3015V25.5497L15.4091 20.1646L13.0754 21.4879V27.3428L15.4065 28.6661L17.9199 27.2478L17.9297 27.1538C17.986 26.5963 18.4427 26.176 18.9922 26.176C19.5851 26.176 20.0672 26.6643 20.0672 27.2646C20.0672 27.865 19.5851 28.3532 18.9922 28.3532C18.8347 28.3532 18.678 28.3155 18.5257 28.2405L18.4422 28.1996L15.9518 29.6043V32.2258L21.139 35.1709L22.0327 34.6636V33.676L17.0238 30.8363V30.2659L17.622 29.9284L22.0327 32.4281V25.1798L23.1077 25.7901V35.3015L21.139 36.419L14.877 32.8636V29.6139L12.0004 27.9806V20.8493L14.877 19.2184V15.9743L21.139 12.419L23.1077 13.5365V23.2882L32.5918 28.6733L34.9254 27.35V21.4954L32.5944 20.1716L30.081 21.5904L30.0717 21.6844C30.0152 22.2414 29.5584 22.6619 29.0086 22.6619C28.4155 22.6619 27.9337 22.1734 27.9337 21.5733C27.9337 20.9729 28.4155 20.4845 29.0086 20.4845C29.1662 20.4845 29.3232 20.5227 29.4752 20.5974L29.5587 20.6386L32.0494 19.2334V16.6122L26.8616 13.6671L25.9679 14.174V15.162L30.977 18.0014V18.5717L30.3786 18.9093L29.662 18.5032L29.6586 18.5051L25.9679 16.4098V23.6375L24.8932 23.027V13.5362ZM21.1389 13.6671L15.9516 16.6122V18.6089L22.0325 15.1617V14.1746L21.1389 13.6671ZM16.5094 19.5412L22.0326 16.4093V22.6774L16.5094 19.5412ZM31.4916 29.2972L25.9679 26.1602V32.4288L31.4916 29.2972ZM25.9679 34.6635V33.6764L32.0493 30.2289V32.2257L26.8615 35.1708L25.9679 34.6635Z" fill="url(#paint0_linear_1_28700)"/>
<defs>
<linearGradient id="paint0_linear_1_28700" x1="4.80029" y1="3.17334" x2="4.80029" y2="45.6661" gradientUnits="userSpaceOnUse">
<stop stop-color="#13E5BF"/>
<stop offset="1" stop-color="#01C38D"/>
</linearGradient>
</defs>
</svg>
