<svg width="11" height="11" viewBox="0 0 11 11" fill="none" xmlns="http://www.w3.org/2000/svg">
<g clip-path="url(#clip0_1_28382)">
<ellipse cx="5.19611" cy="5.70431" rx="4.88068" ry="4.94296" fill="#191E29"/>
<path d="M7.63623 5.70431L5.85571 7.65007C5.77429 7.74174 5.64986 7.78256 5.53005 7.75579C5.41091 7.72903 5.31493 7.63937 5.27919 7.52094C5.24345 7.4025 5.27323 7.27404 5.35796 7.18438L6.39913 6.04689L3.09941 6.04689C2.97696 6.0489 2.86377 5.984 2.80221 5.87694C2.73999 5.77055 2.73999 5.63807 2.80221 5.53168C2.86377 5.42462 2.97696 5.35972 3.09941 5.36173L6.39913 5.36173L5.35796 4.22425C5.27323 4.13459 5.24345 4.00612 5.27919 3.88769C5.31493 3.76925 5.41091 3.67959 5.53005 3.65283C5.64986 3.62607 5.77429 3.66688 5.85571 3.75855L7.63623 5.70431Z" fill="#8F96A1"/>
</g>
<defs>
<clipPath id="clip0_1_28382">
<rect width="9.76136" height="9.88592" fill="white" transform="translate(0.31543 0.761353)"/>
</clipPath>
</defs>
</svg>
