<svg width="30" height="30" viewBox="0 0 30 30" fill="none" xmlns="http://www.w3.org/2000/svg">
<path d="M26.8696 23.1411C27.7555 22.6403 28.4802 21.411 28.4802 20.4093V8.87474C28.4802 7.87305 27.7555 6.64371 26.8696 6.14287L16.6689 0.375601C15.783 -0.125241 14.3336 -0.125241 13.4478 0.375601L3.24706 6.14287C2.36118 6.64371 1.63647 7.87305 1.63647 8.87474V20.4093C1.63647 21.411 2.36118 22.6403 3.24706 23.1411L13.4478 28.9084C14.3336 29.4093 15.783 29.4093 16.6689 28.9084L26.8696 23.1411Z" fill="url(#paint0_linear_1_28381)"/>
<path fill-rule="evenodd" clip-rule="evenodd" d="M17.2652 4.88077L15.68 5.78048V13.4235L16.5455 13.9152V8.09465L19.5177 9.782L19.5205 9.78049L20.0975 10.1075L20.5794 9.83567V9.37633L16.5455 7.08975V6.29414L17.2652 5.88589L21.443 8.25761V10.3685L19.4372 11.5002L19.37 11.467C19.2476 11.4068 19.1211 11.376 18.9943 11.376C18.5166 11.376 18.1286 11.7694 18.1286 12.2529C18.1286 12.7361 18.5166 13.1295 18.9943 13.1295C19.437 13.1295 19.8048 12.7909 19.8504 12.3423L19.8579 12.2667L21.8819 11.124L23.7592 12.1901V16.9049L21.8798 17.9706L14.2422 13.6339V5.7807L12.6568 4.88077L7.61392 7.74395V10.3564L5.29736 11.6698V17.4128L7.61392 18.7281V21.3451L12.6568 24.2083L14.2422 23.3083V15.6487L13.3765 15.1572V20.9944L9.82447 18.9813L9.34277 19.2531V19.7125L13.3765 21.9993V22.7947L12.6568 23.2031L8.47941 20.8314V18.7203L10.485 17.5891L10.5522 17.6221C10.6748 17.6824 10.8011 17.7128 10.9279 17.7128C11.4054 17.7128 11.7936 17.3196 11.7936 16.8362C11.7936 16.3527 11.4054 15.9595 10.9279 15.9595C10.4854 15.9595 10.1176 16.2979 10.0722 16.7469L10.0644 16.8226L8.04028 17.9648L6.16307 16.8991V12.1841L8.04241 11.1184L15.68 15.4551V23.3083L17.2652 24.2083L22.3085 21.3451V18.7324L24.6249 17.419V11.6765L22.3085 10.3616V7.74395L17.2652 4.88077ZM8.47941 8.25761L12.6568 5.88589L13.3765 6.29458V7.08953L8.47941 9.86563V8.25761ZM8.92855 10.6164L13.3765 8.09422V13.142L8.92855 10.6164ZM16.5455 15.9466L20.9939 18.4728L16.5455 20.9948V15.9466ZM16.5455 22.7947V21.9997L21.443 19.2234V20.8314L17.2652 23.2031L16.5455 22.7947Z" fill="white"/>
<defs>
<linearGradient id="paint0_linear_1_28381" x1="15.0583" y1="-3.05176e-05" x2="15.0583" y2="29.284" gradientUnits="userSpaceOnUse">
<stop stop-color="#13E5BF"/>
<stop offset="1" stop-color="#01C38D"/>
</linearGradient>
</defs>
</svg>
